# xmcd
#
# Track frame offsets:
# 150
# 13515
# 29505
# 47647
# 63497
# 73740
# 94675
# 106032
# 118182
# 137835
# 150645
# 165342
# 188750
#
# Disc length: 2736 seconds
#
#
# Revision: 0
# Processed by: cddbd v1.5PL3 Copyright (c) Steve Scherf et al.
# Submitted via: FreeRIP 2.70 
#
DISCID=a70aae0d
DTITLE=Willie Nelson - Always On My Mind
DYEAR=1982
DGENRE=Country
TTITLE0=Do Right Woman, Do Right Man
TTITLE1=Always On My Mind
TTITLE2=Whiter Shade Of Pale
TTITLE3=Let It Be Me
TTITLE4=Staring Each Other Down
TTITLE5=Bridge Over Troubled Water
TTITLE6=Old Fords And A Natural Stone
TTITLE7=Permanently Lonely
TTITLE8=Last Thing I Needed First Thing This Morning
TTITLE9=The Party's Over
TTITLE10=The Man Who Owes Everyone - (bonus track, previously unreleased)
TTITLE11=I'm A Memory - (bonus track, previously unreleased)
TTITLE12=Silence
EXTD=Remastered released 2003
EXTT0=
EXTT1=
EXTT2=
EXTT3=
EXTT4=
EXTT5=
EXTT6=
EXTT7=
EXTT8=
EXTT9=
EXTT10=
EXTT11=
EXTT12=
PLAYORDER=
